<svg width="24" height="24" viewBox="0 0 24 24" xmlns="http://www.w3.org/2000/svg">
    <g fill="none" fill-rule="evenodd">
        <path d="M0 0h24v24H0z"/>
        <path d="m21.674 10.761.001 1.063 2.325.001v.35l-2.325-.001v2.817H24v.35h-2.325v2.817H24v.35h-2.325v2.816l2.325.001v.35l-2.325-.001V24h-.35v-2.326h-2.817V24h-.35v-2.326h-2.817V24h-.35v-2.326h-2.817L12.175 24h-.35l-.001-2.326H9.008V24h-.35v-2.326H5.841V24h-.35v-2.326H2.674L2.675 24h-.35l-.001-2.326L0 21.675v-.35l2.324-.001v-2.816H0v-.35h2.324v-2.817H0v-.35h2.324l-.001-.919.326.407.024.016.001.496h.743l.28.187.162.162-1.185.001v2.817h2.817v-1.77l.35-.071v1.841h2.817v-.134l.35.525v2.775h2.816l-.001-2.228.351.176v2.052h2.817v-2.816h-1.992v-.351l1.992.001v-.647l.211.054.138-.277.001.87 1.715-.001.059.351h-1.774v2.816h2.817l-.001-2.591h.351v2.591h2.817v-2.816H19.73l.175-.351 1.42.001v-2.817l-1.606-.001-.053-.134v-.059l.154-.156h1.505v-2.817h-.458l-.098-.293.037-.058.519.001v-.776l.008-.012v-.189l.341-.086zM8.658 18.508H5.841v2.816h2.817v-2.816zm-3.167 0H2.674v2.816h2.817v-2.816zm3.913-.351h.542l.701.351H9.229l.175-.351zM.999 12.174 0 12.175v-.35l.999-.001v.35zm21.667-3.516H24v.35l-1.334-.001v-.349zm-21.667 0v.35H0v-.35h.999zM2.675 0l-.001 2.324h2.817V0h.35v2.324h2.817V0h.35v2.324h2.816L11.825 0h.35l-.001 2.324h2.817V0h.35v2.324h2.817V0h.35v2.324h2.817V0h.35v2.324L24 2.325v.35l-2.325-.001v2.817H24v.35h-1.001L23 5.733h-2.618l-.055.108h-1.819v1.892h-.256l-.086.086-.009-.009.001-1.969h-2.817l-.001.225-.349-.001v-.224h-1.469l-.35-.35h1.819V2.674h-2.817v2.817h.073l-.455.227-3.608-.227h.474V2.674H5.841v2.347l-.35-.131V2.674H2.674l-.001 1.725h-.35l.001-1.725L0 2.675v-.35l2.324-.001L2.325 0h.35zm-.676 5.841H0v-.35h1.999v.35zm9.825-3.167H9.008v2.817h2.816V2.674zm6.334 0h-2.817v2.817h2.817V2.674zm3.167 0h-2.817v2.817h2.817V2.674z" fill="#177991" fill-rule="nonzero" opacity=".75"/>
        <path fill="#177991" d="M3 5.4v1.667l-1 1v1.666l.667.667-.667.667v1l1.333 1.666 1 .667 1 1L7 15.067h1l.333.666.667 1 .333-.666h1l.334 1.333 1.333.667v-1l1.333-1 1.334.333.333-.667 1-.333.667.333h1l.333 2h1l.333-.666-.666-1.667v-.667L20 13.4v-.667l-.333-1 .666-1v-.666l1.334-.334v-.666L21 8.4l1-.667v-1h-1l-.333.667-.667.333-.667 1h-.666L18 9.4l-.333-.667L17 8.067l-.667.666v1H15v-.666l1-1.334h-2.333l.666-.666h-1l-.666-.667-.667.333L6.667 6.4 4 5.4z"/>
    </g>
</svg>
