<svg width="24" height="12" viewBox="0 0 24 12" xmlns="http://www.w3.org/2000/svg">
    <g fill="none" fill-rule="evenodd">
        <path d="M0 0h24v12H0z"/>
        <path d="m21.674 5.157.001 1.001H24v.35h-2.325v2.816L24 9.325v.35l-2.325-.001V12h-.35V9.674h-2.817V12h-.35V9.674h-1.002l.351-.35h.651l-.001-.65.351-.351v1.001h2.817V6.508h-1.002l.35-.35h.652v-.652l.349-.349zm-6.333 6.333V12h-.35v-.161l.35-.349zm-6.683 0 .35.35V12h-.35v-.51zM2.323 5.155l.35.35.001.653h.652l.35.35H2.674v2.816h2.817V8.323l.35.35v.651h.651l.35.35H5.841V12h-.35V9.674H2.674L2.675 12h-.35l-.001-2.326L0 9.675v-.35l2.324-.001V6.508H0v-.35h2.324l-.001-1.003zM24 0v.175L21.675.174v2.817H24v.35h-2.325l-.001.759h-.349v-.759h-2.817V4.1h-.351l.001-.759h-2.817l-.001.759H15V0h9zM5.491.174H2.674v2.817h2.817V.174zm3.167 0H5.841v2.817h2.817V.174zm9.5 0h-2.817v2.817h2.817V.174zm3.166 0h-2.816v2.817h2.816V.174zM9 4.1h-.342v-.759H5.841V4.1h-.35v-.759H2.674l-.001.759h-.35l.001-.759H0v-.35h2.324V.174L0 .175V0h9v4.1z" fill="#177991" fill-rule="nonzero" opacity=".75"/>
        <path fill="#177991" fill-rule="nonzero" d="M13 0v6.1h4.903L12 12.003 6.097 6.1H11L11 0z"/>
    </g>
</svg>
