<svg width="24" height="24" viewBox="0 0 24 24" xmlns="http://www.w3.org/2000/svg">
    <g fill="none" fill-rule="evenodd">
        <path d="M0 0h24v24H0z"/>
        <path d="m2.675 0-.001 2.324h2.817V0h.35v2.324h2.817V0h.35v2.324h2.816L11.825 0h.35l-.001 2.324h2.817V0h.35v2.324h2.817V0h.35v2.324h2.817V0h.35v2.324L24 2.325v.35l-2.325-.001v2.817H24v.35h-2.325v2.817H24v.35h-2.325v2.816l2.325.001v.35l-2.325-.001v2.817H24v.35h-2.325v2.817H24v.35h-2.325v2.816l2.325.001v.35l-2.325-.001V24h-.35v-2.326h-2.817V24h-.35v-2.326h-2.817V24h-.35v-2.326h-2.817L12.175 24h-.35l-.001-2.326H9.008V24h-.35v-2.326H5.841V24h-.35v-2.326H2.674L2.675 24h-.35l-.001-2.326L0 21.675v-.35l2.324-.001v-2.816H0v-.35h2.324v-2.817H0v-.35h2.324v-2.817L0 12.175v-.35l2.324-.001V9.008H0v-.35h2.324V5.841H0v-.35h2.324V2.674L0 2.675v-.35l2.324-.001L2.325 0h.35zm18.65 18.508h-2.817v2.816h2.817v-2.816zm-3.167 0h-2.817v2.816h2.817v-2.816zm-3.167 0h-2.817v2.816h2.817v-2.816zm-3.167 0H9.008v2.816h2.816v-2.816zm-3.166 0H5.841v2.816h2.817v-2.816zm-3.167 0H2.674v2.816h2.817v-2.816zm12.667-3.167h-2.817v2.817h2.817v-2.817zm-9.5 0H5.841v2.817h2.817v-2.817zm6.333 0h-2.817v2.817h2.817v-2.817zm-9.5 0H2.674v2.817h2.817v-2.817zm6.333 0H9.008v2.817h2.816v-2.817zm9.501 0h-2.817v2.817h2.817v-2.817zm0-6.333H2.674v2.816L3 11.823v.351h-.326v2.817h18.651v-2.817H21v-.351l.325.001V9.008zM5.491 5.841H2.674v2.817h2.817V5.841zm3.167 0H5.841v2.817h2.817V5.841zm3.166 0H9.008v2.817h2.816V5.841zm3.167 0h-2.817v2.817h2.817V5.841zm3.167 0h-2.817v2.817h2.817V5.841zm3.167 0h-2.817v2.817h2.817V5.841zM5.491 2.674H2.674v2.817h2.817V2.674zm3.167 0H5.841v2.817h2.817V2.674zm3.166 0H9.008v2.817h2.816V2.674zm3.167 0h-2.817v2.817h2.817V2.674zm3.167 0h-2.817v2.817h2.817V2.674zm3.167 0h-2.817v2.817h2.817V2.674z" fill="#177991" fill-rule="nonzero" opacity=".75"/>
        <path fill="#177991" fill-rule="nonzero" d="M19 13H5v-2h14z"/>
    </g>
</svg>
