<svg width="24" height="24" viewBox="0 0 24 24" xmlns="http://www.w3.org/2000/svg">
    <g fill="none" fill-rule="evenodd">
        <path d="M0 0h24v24H0z"/>
        <path d="M21.675 17.238v.92H24v.35h-2.325v2.816l2.325.001v.35l-2.325-.001V24h-.35v-2.326h-2.817V24h-.35v-2.326h-.918c.203-.11.403-.227.599-.35h.319v-.208c.118-.08.235-.163.35-.247v.455h2.817v-2.816h-.456c.084-.115.167-.232.247-.35h.209l.001-.322.18-.296.17-.302zm-6.334 5.246V24h-.35v-1.412l.176-.05.174-.054zm-3.517.513L12 23l.174-.001.001 1.001h-.35l-.001-1.003zM8.658 24v-1.517l.349.105L9.008 24h-.35zm-6.335-6.766c.11.205.228.405.35.602l.001.322h.21c.08.119.163.236.248.351l-.458-.001v2.816h2.817v-.455c.115.084.232.167.35.247v.208h.32c.196.123.395.24.599.35H5.84V24h-.35v-2.326H2.674L2.675 24h-.35l-.001-2.326L0 21.675v-.35l2.324-.001v-2.816H0v-.35h2.324l-.001-.924zM12.174 14v.992h2.817v-.992h.349l.001.992.665.001c-.09.12-.186.237-.286.35l-.379-.001v.38c-.112.1-.228.195-.349.285l-.001-.665h-2.817v1.655L12 17l-.177-.003.001-1.656H9.008v.665a5.025 5.025 0 0 1-.35-.287v-.378H8.28l-.183-.215-.102-.135h.663v-.823l.35-.35v1.173h2.816l-.001-.992h.351zm-12.012.992.35.35H0v-.35h.162zm22.426.001H24v.35l-1.516-.002.053-.173.051-.175zm-10.414-4.338v1.17l1.173-.001-.351.351h-.822v.822l-.351.351.001-1.173h-1.171l.351-.351.82.001-.001-.819.351-.351zm-.351-3.65L12 7l.175.003-.001 1.655h2.817l.001-.664c.12.09.237.186.35.286l-.001.378h.377l.184.215.103.135h-.664l-.001.822-.349.349V9.008h-2.817V10h-.351l.001-.992H9.008V10h-.35v-.992h-.664c.09-.121.186-.238.287-.35h.377v-.377c.112-.1.229-.197.35-.287v.664h2.816l-.001-1.654zM0 8.658h1.517l-.105.349L0 9.008v-.35zm23.487 0H24v.35h-.163l-.35-.35zM2.675 0l-.001 2.324h2.817V0h.35v2.324l.924-.001c-.203.11-.403.227-.6.35l-.324.001v.21c-.118.08-.235.163-.35.247v-.457H2.674v2.817h.457a11.03 11.03 0 0 0-.247.35h-.21l-.001.325c-.123.196-.24.395-.35.6l.001-.925H0v-.35h2.324V2.674L0 2.675v-.35l2.324-.001L2.325 0h.35zm15.833 0v2.324h2.817V0h.35v2.324L24 2.325v.35l-2.325-.001v2.817H24v.35h-2.325v.921a10.99 10.99 0 0 0-.35-.599v-.322h-.21a11.03 11.03 0 0 0-.247-.35h.457V2.674h-2.817v.457a11.03 11.03 0 0 0-.35-.248v-.209h-.323a10.99 10.99 0 0 0-.6-.351l.923.001V0h.35zm-3.166 0-.001 1.516a10.913 10.913 0 0 0-.349-.104V0h.35zM9.008 0v1.412l-.35.105V0h.35zm3.167 0-.001 1.002h-.35L11.825 0h.35z" fill="#177991" fill-rule="nonzero" opacity=".75"/>
        <path d="m20 8 4 4h-3a9 9 0 0 1-9 9c-2.49 0-4.73-1.01-6.36-2.64l1.42-1.42A6.944 6.944 0 0 0 12 19c3.87 0 7-3.13 7-7h-3l4-4zm-8-5c2.49 0 4.73 1.01 6.36 2.64l-1.42 1.42A6.944 6.944 0 0 0 12 5c-3.87 0-7 3.13-7 7h3l-4 4-4-4h3a9 9 0 0 1 9-9z" fill="#177991" fill-rule="nonzero"/>
    </g>
</svg>
