<svg width="24" height="24" viewBox="0 0 24 24" xmlns="http://www.w3.org/2000/svg">
    <g fill="none" fill-rule="evenodd">
        <path d="M0 0h24v24H0z"/>
        <path d="m2.675 0-.001 2.324h2.817V0h.35v2.324h2.817V0h.35v2.324h2.816L11.825 0h.35l-.001 2.324h2.817V0h.35v2.324h2.817V0h.35v2.324h2.817V0h.35v2.324L24 2.325v.35l-2.325-.001v2.817H24v.35h-2.325v2.817H24v.35h-2.325v2.816l2.325.001v.35l-2.325-.001v2.817H24v.35h-2.325v2.817H24v.35h-2.325v2.816l2.325.001v.35l-2.325-.001V24h-.35v-2.326h-2.817V24h-.35v-2.326h-2.817V24h-.35v-2.326h-2.817L12.175 24h-.35l-.001-2.326H9.008V24h-.35v-2.326H5.841V24h-.35v-2.326H2.674L2.675 24h-.35l-.001-2.326L0 21.675v-.35l2.324-.001v-2.816H0v-.35h2.324v-2.817H0v-.35h2.324v-2.817L0 12.175v-.35l2.324-.001V9.008H0v-.35h2.324V5.841H0v-.35h2.324V2.674L0 2.675v-.35l2.324-.001L2.325 0h.35zm2.816 18.508H2.674v2.816h2.817v-2.816zm3.167 0H5.841v2.816h2.817v-2.816zm-5.984-6.334v2.817h6.335l-.001 6.333h2.816L11.823 21h.351v.324h2.817V14.99l6.334.001v-2.817H21v-.351l.325.001V9.008h-5.984l-.35.002V2.674h-2.817V3h-.351l.001-.326H9.008V9.01l-3.167-.002H2.674v2.816L3 11.823v.351h-.326zm15.484 6.334h-2.817v2.816h2.817v-2.816zm3.167 0h-2.817v2.816h2.817v-2.816zm-3.167-3.167h-2.817v2.817h2.817v-2.817zm-9.5 0H5.841v2.817h2.817v-2.817zm12.667 0h-2.817v2.817h2.817v-2.817zm-15.834 0H2.674v2.817h2.817v-2.817zm0-9.5H2.674v2.817h2.817V5.841zm3.167 0H5.841v2.817h2.817V5.841zm9.5 0h-2.817v2.817h2.817V5.841zm3.167 0h-2.817v2.817h2.817V5.841zm0-3.167h-2.817v2.817h2.817V2.674zm-3.167 0h-2.817v2.817h2.817V2.674zm-9.5 0H5.841v2.817h2.817V2.674zm-3.167 0H2.674v2.817h2.817V2.674z" fill="#177991" fill-rule="nonzero" opacity=".75"/>
        <path fill="#177991" fill-rule="nonzero" d="M19 13h-6v6h-2v-6H5v-2h6V5h2v6h6z"/>
    </g>
</svg>
