<svg width="24" height="24" viewBox="0 0 24 24" xmlns="http://www.w3.org/2000/svg">
    <g fill="none" fill-rule="evenodd">
        <path d="M0 0h24v24H0z"/>
        <path d="M12 1.2c5.964 0 10.8 4.836 10.8 10.8S17.964 22.8 12 22.8 1.2 17.964 1.2 12 6.036 1.2 12 1.2zm-1.98 5.04H6.78a.36.36 0 0 0-.36.36v10.8c0 .199.161.36.36.36h3.24a.36.36 0 0 0 .36-.36V6.6a.36.36 0 0 0-.36-.36zm7.2 0h-3.24a.36.36 0 0 0-.36.36v10.8c0 .199.161.36.36.36h3.24a.36.36 0 0 0 .36-.36V6.6a.36.36 0 0 0-.36-.36z" fill="#177991"/>
    </g>
</svg>
