<svg width="78" height="28" viewBox="0 0 78 28" xmlns="http://www.w3.org/2000/svg" xmlns:xlink="http://www.w3.org/1999/xlink">
    <defs>
        <filter x="-10%" y="-25%" width="120%" height="170%" filterUnits="objectBoundingBox" id="642ehahxra">
            <feOffset dy="2" in="SourceAlpha" result="shadowOffsetOuter1"/>
            <feGaussianBlur stdDeviation="2" in="shadowOffsetOuter1" result="shadowBlurOuter1"/>
            <feComposite in="shadowBlurOuter1" in2="SourceAlpha" operator="out" result="shadowBlurOuter1"/>
            <feColorMatrix values="0 0 0 0 0 0 0 0 0 0 0 0 0 0 0 0 0 0 0.25 0" in="shadowBlurOuter1"/>
        </filter>
        <path d="M60 0c5.523 0 10 4.477 10 10s-4.477 10-10 10H0v-.999C1.884 16.494 3 13.377 3 10S1.884 3.506 0 .999V0h60z" id="a3zuoys02b"/>
    </defs>
    <g transform="translate(4 2)" fill-rule="nonzero" fill="none">
        <use fill="#000" filter="url(#642ehahxra)" xlink:href="#a3zuoys02b"/>
        <path stroke="#177991" d="M60 .5a9.47 9.47 0 0 1 6.718 2.782A9.47 9.47 0 0 1 69.5 10a9.47 9.47 0 0 1-2.782 6.718A9.47 9.47 0 0 1 60 19.5H.5c1.886-2.9 3-6.07 3-9.5 0-3.43-1.114-6.6-3-9.166z" stroke-linejoin="square" fill="#FFF" fill-rule="evenodd"/>
    </g>
</svg>
